<?xml version="1.0" encoding="UTF-8" standalone="no"?><!DOCTYPE svg PUBLIC "-//W3C//DTD SVG 1.1//EN" "http://www.w3.org/Graphics/SVG/1.1/DTD/svg11.dtd"><svg width="100%" height="100%" viewBox="0 0 298 71" version="1.1" xmlns="http://www.w3.org/2000/svg" xmlns:xlink="http://www.w3.org/1999/xlink" xml:space="preserve" xmlns:serif="http://www.serif.com/" style="fill-rule:evenodd;clip-rule:evenodd;stroke-linejoin:round;stroke-miterlimit:2;"><g><g><path d="M282.683,19.383c-0.148,0 -0.395,0.095 -0.791,0.285c-0.493,0.333 -0.889,0.713 -1.235,1.234c-0.346,0.475 -0.543,0.997 -0.543,1.52c-0,0.332 0.296,0.522 0.84,0.664c0.544,0.142 1.086,0.19 1.531,0.19c0.742,-0 1.286,-0.238 1.631,-0.759c0.395,-0.523 0.593,-1.14 0.593,-1.852c-0,-0.522 -0.198,-0.902 -0.544,-1.044c-0.345,-0.143 -0.839,-0.238 -1.482,-0.238Z" style="fill:#3cc;fill-rule:nonzero;"/><path d="M189.644,19.383c-0.149,0 -0.396,0.095 -0.791,0.285c-0.495,0.333 -0.89,0.713 -1.235,1.234c-0.346,0.475 -0.544,0.997 -0.544,1.52c0,0.332 0.297,0.522 0.84,0.664c0.543,0.142 1.087,0.19 1.532,0.19c0.741,-0 1.284,-0.238 1.63,-0.759c0.396,-0.523 0.593,-1.14 0.593,-1.852c0,-0.522 -0.197,-0.902 -0.543,-1.044c-0.346,-0.143 -0.841,-0.238 -1.482,-0.238Z" style="fill:#3cc;fill-rule:nonzero;"/><path d="M36.521,4.666c0.247,0.237 0.544,0.522 0.79,0.855c0.247,0.332 0.445,0.617 0.692,0.949c0.198,0.332 0.346,0.617 0.494,0.902c0.099,0.285 0.148,0.522 0.148,0.712c0,0.475 -0.247,0.854 -0.79,1.092c-0.594,0.237 -1.433,0.38 -2.52,0.522c-0.544,0.048 -1.037,0.095 -1.482,0.143c-0.445,0.047 -0.791,0.047 -1.137,0.095c-0.396,-0 -0.741,0.047 -0.988,0.095c-0.247,0.047 -0.494,0.142 -0.741,0.285c-0.099,0.047 -0.198,0.095 -0.247,0.237c-0.099,0.095 -0.149,0.238 -0.198,0.38c-0.05,0.095 -0.05,0.237 -0.099,0.379c-0.049,0.095 -0.049,0.238 -0.049,0.38c-0.05,0.19 0.049,0.427 0.296,0.712c0.247,0.285 0.544,0.618 0.939,0.95c0.346,0.332 0.79,0.664 1.235,0.997c0.346,0.237 0.741,0.475 1.088,0.712l3.26,0c-0.592,-0.332 -1.136,-0.617 -1.581,-0.902c-0.544,-0.333 -0.988,-0.665 -1.333,-0.902c-0.396,-0.237 -0.693,-0.475 -0.841,-0.712c-0.247,-0.238 -0.346,-0.38 -0.346,-0.475c0,-0.047 0.099,-0.142 0.247,-0.19c0.099,-0.047 0.297,-0.095 0.544,-0.142c0.198,-0.048 0.445,-0.095 0.79,-0.143c0.297,-0.047 0.593,-0.047 0.939,-0.095c0.346,-0.047 0.643,-0.047 0.989,-0.095c0.296,-0.047 0.592,-0.095 0.938,-0.142c0.643,-0.143 1.186,-0.237 1.631,-0.379c0.444,-0.19 0.79,-0.38 1.037,-0.618c0.247,-0.19 0.396,-0.427 0.494,-0.665c0.099,-0.237 0.149,-0.475 0.149,-0.76c-0,-0.379 -0.099,-0.759 -0.247,-1.139c-0.149,-0.379 -0.346,-0.759 -0.544,-1.092c-0.247,-0.379 -0.494,-0.711 -0.741,-1.044c-0.247,-0.332 -0.444,-0.617 -0.692,-0.855c-0.247,-0.332 -0.543,-0.665 -0.889,-0.996c-0.346,-0.285 -0.692,-0.57 -0.988,-0.902c-0.346,-0.285 -0.692,-0.523 -0.989,-0.76c-0.296,-0.238 -0.593,-0.475 -0.84,-0.617c-0.099,-0.095 -0.198,-0.142 -0.346,-0.19c-0.147,-0.047 -0.295,-0.142 -0.444,-0.19c-0.148,-0.047 -0.247,-0.047 -0.395,-0.095c-0.149,-0.047 -0.247,-0.047 -0.297,-0.047c-0.247,-0 -0.395,0.047 -0.395,0.19c-0,0.047 0.049,0.142 0.197,0.285c0.297,0.284 0.594,0.569 0.94,0.854c0.247,0.285 0.542,0.57 0.79,0.807c0.247,0.237 0.543,0.522 0.79,0.806c0.248,0.238 0.495,0.523 0.742,0.808Z" style="fill:#3cc;fill-rule:nonzero;"/><path d="M35.532,18.149c-0.395,0.048 -0.791,0.048 -1.136,0.094c-0.346,0.048 -0.642,0.048 -0.988,0.095c-0.346,0 -0.643,0.048 -0.89,0.095c-0.543,0.095 -0.938,0.285 -1.284,0.618c-0.346,0.332 -0.544,0.665 -0.544,1.092c0,0.428 0.099,0.807 0.346,1.234c0.198,0.38 0.544,0.76 0.989,1.14c0.196,0.142 0.444,0.38 0.79,0.616c0.346,0.19 0.692,0.38 1.038,0.618c0.346,0.237 0.692,0.427 1.037,0.665c0.346,0.19 0.692,0.38 0.939,0.522c0.395,0.238 0.791,0.474 1.186,0.712c0.345,0.237 0.691,0.427 1.037,0.664c0.297,0.19 0.593,0.38 0.841,0.57c0.197,0.143 0.346,0.285 0.494,0.428c-0.198,-0.048 -0.445,-0.048 -0.692,-0.048c-0.297,-0.047 -0.692,-0.095 -1.187,-0.142c-0.197,-0.048 -0.444,-0.095 -0.74,-0.143c-0.346,-0.047 -0.741,-0.142 -1.087,-0.19c-0.346,-0.095 -0.742,-0.142 -1.136,-0.19c-0.396,-0.095 -0.791,-0.19 -1.137,-0.237c-0.445,-0.048 -0.791,-0.095 -1.088,-0.143c-0.345,-0.047 -0.592,-0.047 -0.839,-0.047c-0.198,-0 -0.395,-0 -0.593,0.047c-0.198,0.048 -0.346,0.095 -0.494,0.143c-0.149,0.047 -0.297,0.142 -0.346,0.285c-0.099,0.142 -0.149,0.285 -0.099,0.475c-0.05,0.047 -0,0.19 0.099,0.332c0.098,0.143 0.197,0.284 0.346,0.427c0.148,0.095 0.247,0.19 0.395,0.285c0.148,0.142 0.297,0.19 0.395,0.237c0.198,0.048 0.495,0.048 0.89,0.095c0.345,0 0.691,0.048 1.136,0.095c0.395,0 0.84,0.048 1.285,0.095c0.444,0.048 0.84,0.048 1.235,0.095c0.445,0.048 0.89,0.143 1.236,0.19c0.345,0.048 0.691,0.095 0.987,0.143c0.297,-0 0.594,-0 0.94,0.047c0.247,0 0.593,0 0.987,0.048l0.494,-0c0.149,-0.048 0.248,-0.048 0.396,-0.048c0.099,-0.047 0.198,-0.047 0.346,-0.047c0.049,-0.048 0.198,-0.095 0.395,-0.143c0.741,-0.237 1.087,-0.665 1.087,-1.282c-0,-0.379 -0.198,-0.712 -0.544,-0.949c-0.147,-0.143 -0.394,-0.238 -0.691,-0.38c-0.247,-0.143 -0.494,-0.285 -0.741,-0.428c-0.297,-0.19 -0.594,-0.379 -0.841,-0.522c-0.295,-0.142 -0.542,-0.284 -0.74,-0.379c-0.84,-0.427 -1.631,-0.902 -2.322,-1.33c-0.742,-0.427 -1.335,-0.855 -1.78,-1.234c-0.543,-0.427 -0.938,-0.76 -1.235,-1.045c-0.296,-0.284 -0.445,-0.522 -0.445,-0.664c0,-0.285 0.346,-0.474 1.088,-0.617c0.74,-0.142 1.778,-0.237 3.161,-0.285c1.385,-0.047 2.372,-0.19 3.015,-0.332c0.543,-0.238 0.84,-0.618 0.84,-1.188c0,-0.426 -0.346,-0.901 -0.989,-1.329c-0.692,-0.522 -1.679,-1.139 -2.964,-1.851c-0.05,-0.047 -0.149,-0.047 -0.198,-0.095l-3.26,0c0.148,0.048 0.296,0.143 0.444,0.238c0.543,0.237 1.037,0.521 1.482,0.806c0.445,0.238 0.841,0.428 1.186,0.665c0.741,0.38 1.087,0.665 1.087,0.807c0,0.048 0,0.095 -0.049,0.143c-0.05,-0 -0.149,0.047 -0.297,0.095c-0.148,0.047 -0.297,0.095 -0.494,0.142c-0.247,0.047 -0.494,0.094 -0.79,0.142c-0.297,-0 -0.643,-0 -0.989,0.047l0,0.001Z" style="fill:#3cc;fill-rule:nonzero;"/><path d="M41.857,42.646c0,-0.095 -0.049,-0.238 -0.148,-0.38c-0.099,-0.143 -0.198,-0.285 -0.297,-0.379c-0.148,-0.143 -0.296,-0.238 -0.444,-0.333c-0.149,-0.142 -0.297,-0.19 -0.346,-0.19c-0.248,-0.047 -0.544,-0.095 -0.89,-0.095c-0.345,-0.047 -0.741,-0.047 -1.136,-0.095c-0.445,-0.047 -0.89,-0.095 -1.335,-0.142c-0.444,-0.048 -0.839,-0.048 -1.234,-0.095c-0.445,-0.048 -0.841,-0.143 -1.187,-0.19c-0.394,-0.048 -0.74,-0.048 -1.037,-0.095c-0.296,-0.048 -0.593,-0.048 -0.89,-0.048c-0.296,-0.047 -0.642,-0.047 -0.987,-0.047l-0.494,-0c-0.149,-0 -0.297,-0 -0.445,0.047c-0.099,0 -0.198,0 -0.297,0.048c-0.099,-0 -0.247,0.047 -0.445,0.095c-0.74,0.237 -1.086,0.665 -1.037,1.329c-0.049,0.332 0.148,0.665 0.543,0.902c0.148,0.143 0.346,0.285 0.643,0.428c0.247,0.142 0.494,0.284 0.79,0.427c0.248,0.142 0.544,0.332 0.841,0.474c0.246,0.142 0.493,0.285 0.74,0.427c0.84,0.428 1.582,0.855 2.322,1.33c0.692,0.428 1.286,0.807 1.78,1.234c0.493,0.38 0.889,0.713 1.185,0.997c0.297,0.285 0.445,0.523 0.495,0.665c-0.05,0.284 -0.396,0.522 -1.137,0.664c-0.741,0.143 -1.779,0.19 -3.112,0.238c-1.434,0.047 -2.422,0.19 -3.015,0.38c-0.593,0.19 -0.889,0.57 -0.889,1.186c-0,0.428 0.346,0.855 1.038,1.33c0.641,0.475 1.63,1.091 2.915,1.804c0.049,0.047 0.148,0.095 0.246,0.142l3.212,0c-0.148,-0.095 -0.297,-0.19 -0.445,-0.285c-0.543,-0.237 -1.037,-0.522 -1.482,-0.759c-0.445,-0.237 -0.84,-0.475 -1.186,-0.665c-0.691,-0.427 -1.037,-0.664 -1.037,-0.807c-0.05,-0.047 -0.05,-0.095 -0,-0.142c0.049,-0.048 0.148,-0.095 0.297,-0.143c0.148,-0.047 0.296,-0.095 0.494,-0.142c0.246,-0.048 0.493,-0.095 0.79,-0.095c0.296,-0.048 0.642,-0.048 1.038,-0.048c0.346,-0.047 0.741,-0.047 1.086,-0.095c0.346,-0.047 0.692,-0.095 1.038,-0.095c0.346,-0.046 0.643,-0.094 0.89,-0.141c0.493,-0.095 0.938,-0.285 1.284,-0.57c0.346,-0.333 0.494,-0.713 0.494,-1.093c0,-0.427 -0.098,-0.854 -0.346,-1.281c-0.197,-0.38 -0.494,-0.76 -0.939,-1.092c-0.247,-0.19 -0.493,-0.38 -0.839,-0.617c-0.346,-0.237 -0.692,-0.427 -1.038,-0.617c-0.346,-0.238 -0.643,-0.475 -0.988,-0.665c-0.395,-0.238 -0.741,-0.38 -0.988,-0.523c-0.396,-0.237 -0.791,-0.475 -1.137,-0.711c-0.395,-0.238 -0.741,-0.475 -1.087,-0.665c-0.296,-0.237 -0.543,-0.427 -0.791,-0.617c-0.247,-0.143 -0.395,-0.285 -0.543,-0.38c0.197,-0 0.445,-0 0.692,0.047c0.296,0.048 0.692,0.095 1.236,0.143c0.148,0.047 0.394,0.095 0.74,0.142c0.346,0.048 0.692,0.095 1.038,0.143c0.346,0.095 0.741,0.19 1.136,0.237c0.395,0.048 0.791,0.143 1.186,0.238c0.396,0.047 0.742,0.047 1.038,0.095c0.345,0.047 0.592,0.047 0.84,0.047c0.197,0 0.395,0 0.593,-0.047c0.197,-0.048 0.395,-0.048 0.543,-0.095c0.149,-0.095 0.248,-0.19 0.297,-0.333c0.099,-0.142 0.148,-0.285 0.148,-0.427Z" style="fill:#3cc;fill-rule:nonzero;"/><path d="M35.137,58.36c-0.297,0.048 -0.592,0.048 -0.889,0.095c-0.692,0.142 -1.236,0.284 -1.681,0.427c-0.443,0.142 -0.789,0.332 -1.037,0.57c-0.247,0.19 -0.395,0.427 -0.494,0.665c-0.099,0.237 -0.148,0.475 -0.148,0.807c-0,0.332 0.099,0.712 0.247,1.091c0.148,0.38 0.346,0.76 0.544,1.14c0.247,0.332 0.493,0.664 0.74,0.997c0.247,0.332 0.445,0.617 0.692,0.902c0.247,0.285 0.593,0.618 0.939,0.949c0.346,0.285 0.642,0.57 0.988,0.902c0.346,0.285 0.643,0.57 0.939,0.808c0.297,0.237 0.593,0.425 0.84,0.568c0.099,0.095 0.248,0.19 0.395,0.237c0.148,0.048 0.296,0.143 0.445,0.19c0.099,0 0.198,0 0.346,0.048c0.148,0.047 0.296,0.047 0.346,0.047c0.247,0 0.346,-0.047 0.346,-0.142c-0,-0.095 -0.05,-0.19 -0.148,-0.333c-0.346,-0.284 -0.643,-0.568 -0.94,-0.853c-0.296,-0.285 -0.592,-0.57 -0.839,-0.807c-0.247,-0.238 -0.544,-0.522 -0.791,-0.76c-0.247,-0.285 -0.494,-0.569 -0.741,-0.806c-0.247,-0.285 -0.544,-0.57 -0.79,-0.903c-0.247,-0.332 -0.445,-0.617 -0.692,-0.95c-0.198,-0.331 -0.346,-0.616 -0.445,-0.854c-0.148,-0.332 -0.198,-0.569 -0.198,-0.712c0,-0.522 0.247,-0.901 0.791,-1.139c0.593,-0.237 1.433,-0.38 2.569,-0.522c0.495,-0.048 0.988,-0.095 1.433,-0.143c0.445,-0.047 0.84,-0.047 1.186,-0.047c0.346,-0.048 0.691,-0.048 0.938,-0.095c0.248,-0.048 0.495,-0.19 0.742,-0.333c0.099,-0.047 0.198,-0.095 0.247,-0.237c0.099,-0.095 0.198,-0.19 0.247,-0.333c0,-0.142 0.05,-0.237 0.099,-0.38c0,-0.141 0,-0.284 0.049,-0.426c0,-0.19 -0.098,-0.428 -0.346,-0.713c-0.247,-0.284 -0.543,-0.569 -0.939,-0.902c-0.346,-0.332 -0.79,-0.664 -1.234,-0.996c-0.346,-0.238 -0.742,-0.475 -1.088,-0.713l-3.212,0c0.544,0.285 1.088,0.57 1.532,0.903c0.544,0.332 0.988,0.616 1.334,0.854c0.396,0.237 0.692,0.475 0.89,0.712c0.198,0.237 0.296,0.38 0.296,0.522c0,0.048 -0.049,0.095 -0.197,0.143c-0.149,0.047 -0.297,0.095 -0.544,0.142c-0.247,0.048 -0.494,0.095 -0.791,0.143c-0.345,0.047 -0.642,0.095 -0.938,0.142c-0.346,0.048 -0.692,0.048 -1.038,0.094l-0,0.001Z" style="fill:#3cc;fill-rule:nonzero;"/><path d="M28.467,28.641c-0.396,-0.048 -0.742,0.142 -0.989,0.522c-0.148,0.143 -0.247,0.333 -0.394,0.618c-0.149,0.237 -0.297,0.474 -0.445,0.758c-0.198,0.238 -0.396,0.523 -0.544,0.808c-0.148,0.237 -0.297,0.475 -0.395,0.712c-0.445,0.807 -0.94,1.519 -1.383,2.232c-0.149,0.142 -0.248,0.284 -0.297,0.427l1.828,-0c0.148,-0.238 0.346,-0.475 0.494,-0.712c0.247,-0.38 0.445,-0.713 0.692,-1.045c0.197,-0.285 0.395,-0.523 0.592,-0.759c0.149,-0.238 0.297,-0.38 0.445,-0.523c-0.049,0.19 -0.049,0.428 -0.049,0.665c-0.05,0.284 -0.099,0.664 -0.148,1.187c-0.05,0.142 -0.099,0.38 -0.149,0.712c-0.049,0.143 -0.049,0.285 -0.099,0.475l2.076,-0c0.049,-0.238 0.049,-0.475 0.098,-0.665c0.05,-0.38 0.099,-0.712 0.149,-0.997c-0,-0.285 -0,-0.57 0.049,-0.854c0,-0.285 0,-0.618 0.05,-0.95l-0,-0.475c-0.05,-0.143 -0.05,-0.285 -0.05,-0.428c-0.049,-0.094 -0.049,-0.189 -0.049,-0.284c-0.05,-0.095 -0.099,-0.237 -0.149,-0.427c-0.246,-0.712 -0.691,-1.045 -1.333,-0.997Z" style="fill:#3cc;fill-rule:nonzero;"/><path d="M19.968,30.634c-0.246,-0.569 -0.642,-0.853 -1.235,-0.853c-0.445,-0 -0.939,0.331 -1.384,0.996c-0.543,0.617 -1.185,1.567 -1.927,2.801c-0.247,0.38 -0.445,0.76 -0.641,1.14l1.827,-0c0.149,-0.285 0.346,-0.57 0.495,-0.807c0.394,-0.665 0.691,-0.998 0.839,-0.998c0.049,-0.047 0.099,-0.047 0.148,0c0,0.048 0.05,0.143 0.099,0.285c0.05,0.143 0.099,0.285 0.149,0.475c0.049,0.238 0.098,0.475 0.148,0.76l-0,0.285l1.877,-0c-0.049,-0.38 -0.049,-0.76 -0.049,-1.187c-0.05,-1.377 -0.198,-2.327 -0.346,-2.897Z" style="fill:#3cc;fill-rule:nonzero;"/><path d="M20.363,34.718l-1.877,-0c-0,0.236 -0,0.474 0.049,0.711c0.05,0.333 0.05,0.713 0.099,1.045c0.05,0.333 0.05,0.665 0.099,0.997c-0,0.332 0.049,0.617 0.099,0.855c0.099,0.475 0.296,0.902 0.642,1.234c0.345,0.332 0.691,0.474 1.136,0.474c0.445,0 0.841,-0.095 1.285,-0.332c0.395,-0.189 0.79,-0.474 1.186,-0.901c0.148,-0.238 0.395,-0.475 0.642,-0.808c0.198,-0.332 0.396,-0.665 0.643,-0.996c0.247,-0.333 0.444,-0.618 0.691,-0.95c0.198,-0.38 0.395,-0.713 0.544,-0.95c0.049,-0.143 0.148,-0.237 0.247,-0.379l-1.828,-0c-0.346,0.474 -0.692,0.901 -0.989,1.281c-0.444,0.475 -0.789,0.855 -1.086,1.14c-0.297,0.284 -0.544,0.427 -0.692,0.474c-0.297,-0.047 -0.494,-0.38 -0.643,-1.091c-0.148,-0.475 -0.197,-1.093 -0.247,-1.804Z" style="fill:#3cc;fill-rule:nonzero;"/><path d="M29.702,34.718l-2.076,-0c-0.049,0.142 -0.049,0.331 -0.098,0.521c-0.099,0.333 -0.149,0.713 -0.198,1.093c-0.099,0.38 -0.197,0.76 -0.246,1.139c-0.05,0.38 -0.099,0.712 -0.149,0.997c-0.049,0.333 -0.049,0.57 -0.049,0.807c-0,0.19 -0,0.379 0.049,0.569c0.05,0.19 0.099,0.38 0.149,0.523c0.049,0.142 0.147,0.237 0.295,0.285c0.149,0.095 0.297,0.142 0.495,0.142c0.049,0 0.197,-0.047 0.346,-0.142c0.148,-0.095 0.296,-0.19 0.444,-0.285c0.099,-0.143 0.198,-0.285 0.297,-0.428c0.148,-0.142 0.198,-0.285 0.247,-0.332c0.05,-0.237 0.05,-0.522 0.099,-0.854c0,-0.332 0.049,-0.712 0.099,-1.092c-0,-0.428 0.049,-0.854 0.099,-1.282c0.049,-0.427 0.049,-0.807 0.099,-1.187c0.049,-0.19 0.049,-0.332 0.098,-0.474Z" style="fill:#3cc;fill-rule:nonzero;"/><path d="M4.552,32.392c-0.346,0.236 -0.692,0.569 -1.038,0.901c-0.296,0.333 -0.593,0.618 -0.939,0.95c-0.147,0.143 -0.295,0.332 -0.394,0.475l2.025,-0c0.05,-0.095 0.149,-0.19 0.297,-0.285c0.247,-0.237 0.543,-0.522 0.889,-0.76c0.346,-0.237 0.642,-0.427 0.988,-0.665c0.346,-0.19 0.643,-0.332 0.94,-0.427c0.295,-0.142 0.542,-0.189 0.74,-0.189c0.494,-0 0.89,0.236 1.137,0.759c0.148,0.38 0.296,0.902 0.445,1.567l1.877,-0l0,-0.38c-0.049,-0.285 -0.099,-0.57 -0.148,-0.855c-0.148,-0.665 -0.247,-1.186 -0.396,-1.614c-0.197,-0.427 -0.395,-0.76 -0.642,-0.997c-0.198,-0.238 -0.444,-0.38 -0.691,-0.475c-0.247,-0.095 -0.495,-0.142 -0.791,-0.142c-0.396,-0 -0.791,0.094 -1.186,0.237c-0.395,0.142 -0.79,0.332 -1.136,0.522c-0.396,0.238 -0.742,0.475 -1.088,0.713c-0.346,0.237 -0.641,0.427 -0.889,0.665Z" style="fill:#3cc;fill-rule:nonzero;"/><path d="M4.206,34.718l-2.025,-0c-0.149,0.142 -0.297,0.284 -0.396,0.426c-0.247,0.285 -0.494,0.57 -0.642,0.808c-0.099,0.095 -0.149,0.237 -0.198,0.38c-0.049,0.142 -0.148,0.285 -0.198,0.427c-0.049,0.095 -0.049,0.19 -0.099,0.333c-0.049,0.141 -0.049,0.284 -0.049,0.331c-0,0.238 0.049,0.333 0.198,0.333c0.049,-0 0.148,-0.048 0.296,-0.143c0.297,-0.332 0.593,-0.616 0.89,-0.901c0.297,-0.285 0.592,-0.57 0.839,-0.808c0.248,-0.237 0.544,-0.522 0.841,-0.76c0.148,-0.142 0.346,-0.284 0.543,-0.426Z" style="fill:#3cc;fill-rule:nonzero;"/><path d="M11.519,34.718l-1.877,-0c0.049,0.236 0.049,0.569 0.099,0.901c0.049,0.475 0.098,0.95 0.148,1.378c0.048,0.426 0.048,0.806 0.098,1.139c-0,0.332 0.049,0.665 0.099,0.902c0.049,0.237 0.148,0.475 0.296,0.711c0.05,0.095 0.099,0.19 0.247,0.238c0.099,0.095 0.248,0.19 0.396,0.237c0.099,0 0.247,0.048 0.395,0.095c0.099,0 0.247,0 0.396,0.048c0.197,-0 0.445,-0.095 0.74,-0.333c0.297,-0.237 0.643,-0.521 0.989,-0.901c0.346,-0.332 0.692,-0.76 1.038,-1.187c0.345,-0.475 0.691,-0.949 0.987,-1.472c0.248,-0.522 0.544,-0.997 0.841,-1.425c0.049,-0.142 0.148,-0.237 0.197,-0.331l-1.827,-0c-0.149,0.189 -0.297,0.379 -0.396,0.569c-0.346,0.522 -0.692,0.95 -0.939,1.282c-0.247,0.38 -0.494,0.664 -0.742,0.854c-0.247,0.19 -0.394,0.285 -0.493,0.285c-0.049,0 -0.148,-0.047 -0.198,-0.19c-0.049,-0.142 -0.098,-0.285 -0.148,-0.521c-0.049,-0.238 -0.099,-0.475 -0.148,-0.76c-0.05,-0.333 -0.05,-0.618 -0.099,-0.903c-0.049,-0.237 -0.049,-0.427 -0.099,-0.616Z" style="fill:#3cc;fill-rule:nonzero;"/><path d="M60.386,29.591c-0.149,-0.048 -0.297,-0.048 -0.445,-0.048c-0.198,-0.047 -0.445,0.048 -0.741,0.285c-0.296,0.237 -0.593,0.521 -0.939,0.901c-0.346,0.333 -0.692,0.76 -1.038,1.188c-0.394,0.475 -0.74,0.949 -1.037,1.471c-0.247,0.523 -0.544,0.998 -0.791,1.425c-0.099,0.141 -0.197,0.236 -0.247,0.379l1.878,-0c0.148,-0.238 0.247,-0.427 0.395,-0.617c0.346,-0.522 0.643,-0.949 0.89,-1.282c0.247,-0.38 0.494,-0.665 0.741,-0.807c0.247,-0.237 0.395,-0.332 0.543,-0.332c0.049,0 0.099,0.095 0.148,0.238c0.05,0.094 0.099,0.284 0.148,0.521c0.05,0.19 0.099,0.428 0.149,0.76c0.049,0.285 0.099,0.57 0.148,0.902c0,0.19 0,0.379 0.049,0.617l1.927,-0c-0.049,-0.285 -0.099,-0.569 -0.148,-0.901c-0.049,-0.523 -0.099,-0.998 -0.148,-1.425c-0.05,-0.428 -0.05,-0.759 -0.05,-1.092c-0.048,-0.38 -0.048,-0.712 -0.098,-0.95c-0.049,-0.237 -0.197,-0.475 -0.346,-0.712c-0.049,-0.094 -0.098,-0.189 -0.247,-0.236c-0.099,-0.095 -0.198,-0.143 -0.346,-0.19c-0.148,-0.048 -0.247,-0.048 -0.395,-0.095Z" style="fill:#3cc;fill-rule:nonzero;"/><path d="M71.009,32.107c-0.099,-0 -0.197,0.047 -0.346,0.19c-0.296,0.284 -0.593,0.569 -0.889,0.901c-0.297,0.238 -0.593,0.523 -0.84,0.76c-0.247,0.238 -0.544,0.522 -0.791,0.76c-0.197,0.142 -0.395,0.331 -0.543,0.474l2.025,-0c0.149,-0.143 0.247,-0.332 0.396,-0.474c0.247,-0.285 0.445,-0.57 0.593,-0.807c0.099,-0.095 0.198,-0.19 0.247,-0.333c0.049,-0.142 0.148,-0.285 0.198,-0.427c-0,-0.143 -0,-0.238 0.049,-0.38c0.05,-0.143 0.05,-0.238 0.05,-0.285c-0,-0.237 -0.05,-0.379 -0.149,-0.379Z" style="fill:#3cc;fill-rule:nonzero;"/><path d="M43.932,29.116c-0.098,-0.048 -0.247,-0 -0.395,0.095c-0.148,0.095 -0.297,0.19 -0.395,0.332c-0.149,0.143 -0.248,0.238 -0.346,0.38c-0.149,0.142 -0.198,0.284 -0.198,0.379c-0.05,0.19 -0.099,0.475 -0.099,0.855c-0.049,0.332 -0.049,0.665 -0.099,1.092c-0.049,0.379 -0.099,0.807 -0.148,1.234c-0.05,0.428 -0.05,0.808 -0.099,1.187c-0.049,0.19 -0.049,0.379 -0.049,0.522l2.026,-0c0.05,-0.19 0.05,-0.379 0.099,-0.569c0.099,-0.332 0.198,-0.712 0.246,-1.092c0.05,-0.38 0.148,-0.76 0.247,-1.092c0.05,-0.427 0.05,-0.76 0.099,-1.045c0.05,-0.332 0.05,-0.57 0.05,-0.807c-0,-0.19 -0,-0.38 -0.05,-0.569c-0.049,-0.19 -0.049,-0.332 -0.099,-0.475c-0.099,-0.142 -0.197,-0.285 -0.345,-0.332c-0.148,-0.095 -0.296,-0.143 -0.445,-0.095Z" style="fill:#3cc;fill-rule:nonzero;"/><path d="M53.073,32.439c-0.049,-0.332 -0.099,-0.617 -0.148,-0.855c-0.099,-0.522 -0.297,-0.902 -0.593,-1.235c-0.346,-0.331 -0.741,-0.521 -1.136,-0.521c-0.445,0 -0.89,0.095 -1.335,0.332c-0.395,0.189 -0.79,0.522 -1.136,0.949c-0.198,0.19 -0.395,0.428 -0.642,0.76c-0.248,0.333 -0.445,0.664 -0.643,0.997c-0.247,0.332 -0.493,0.665 -0.691,0.997c-0.247,0.333 -0.395,0.665 -0.544,0.902c-0.099,0.142 -0.197,0.284 -0.296,0.427l1.877,-0c0.346,-0.522 0.643,-0.949 0.989,-1.281c0.395,-0.523 0.74,-0.903 1.037,-1.188c0.296,-0.285 0.543,-0.426 0.692,-0.426c0.296,-0 0.543,0.331 0.692,1.044c0.099,0.475 0.148,1.092 0.197,1.851l1.878,-0l-0,-0.712c-0.05,-0.379 -0.05,-0.759 -0.099,-1.092c-0.049,-0.332 -0.099,-0.617 -0.099,-0.95l0,0.001Z" style="fill:#3cc;fill-rule:nonzero;"/><path d="M55.148,35.192c-0.148,0.237 -0.296,0.522 -0.445,0.76c-0.444,0.712 -0.691,1.045 -0.839,1.045c-0.049,-0 -0.099,-0 -0.148,-0.048c-0.05,-0.047 -0.099,-0.142 -0.149,-0.285c-0.049,-0.142 -0.098,-0.285 -0.148,-0.475c-0.049,-0.237 -0.099,-0.475 -0.099,-0.76c-0.049,-0.095 -0.049,-0.19 -0.049,-0.237l-1.878,-0c0.05,0.332 0.05,0.76 0.05,1.187c0.049,1.329 0.198,2.279 0.395,2.896c0.197,0.522 0.592,0.807 1.235,0.807c0.445,-0 0.89,-0.333 1.383,-0.949c0.494,-0.665 1.137,-1.615 1.878,-2.849c0.248,-0.38 0.445,-0.76 0.692,-1.092l-1.878,-0Z" style="fill:#3cc;fill-rule:nonzero;"/><path d="M47.489,35.619c0.099,-0.142 0.198,-0.285 0.297,-0.427l-1.877,-0c-0.149,0.237 -0.297,0.475 -0.445,0.712c-0.247,0.333 -0.495,0.665 -0.692,0.998c-0.247,0.285 -0.444,0.569 -0.642,0.806c-0.148,0.19 -0.296,0.333 -0.395,0.475c-0,-0.19 -0,-0.427 0.049,-0.665c0.05,-0.285 0.099,-0.664 0.148,-1.139c0.05,-0.19 0.099,-0.427 0.149,-0.712c-0,-0.143 -0,-0.333 0.049,-0.475l-2.026,-0c-0.05,0.237 -0.098,0.427 -0.148,0.665c-0.049,0.332 -0.049,0.665 -0.099,0.95c-0.049,0.285 -0.049,0.569 -0.049,0.901c-0.049,0.238 -0.049,0.57 -0.049,0.95l-0,0.475c-0,0.142 -0,0.237 0.049,0.38c-0,0.094 -0,0.189 0.049,0.331c0,0.048 0.05,0.19 0.099,0.38c0.246,0.713 0.691,1.045 1.383,1.045c0.346,0 0.692,-0.19 0.939,-0.522c0.149,-0.143 0.296,-0.38 0.444,-0.665c0.149,-0.238 0.297,-0.475 0.445,-0.712c0.149,-0.285 0.346,-0.569 0.495,-0.807c0.148,-0.285 0.296,-0.522 0.444,-0.712c0.445,-0.807 0.889,-1.567 1.383,-2.232Z" style="fill:#3cc;fill-rule:nonzero;"/><path d="M69.181,35.667c0.148,-0.19 0.296,-0.333 0.444,-0.475l-2.025,-0c-0.099,0.047 -0.198,0.142 -0.297,0.237c-0.297,0.238 -0.592,0.523 -0.938,0.76c-0.346,0.238 -0.643,0.428 -0.989,0.665c-0.346,0.19 -0.642,0.333 -0.89,0.474c-0.345,0.095 -0.592,0.143 -0.74,0.143c-0.544,-0 -0.939,-0.238 -1.186,-0.759c-0.149,-0.38 -0.297,-0.903 -0.396,-1.52l-1.927,-0c0,0.095 0,0.19 0.05,0.332c0.049,0.285 0.049,0.57 0.099,0.903c0.148,0.617 0.296,1.139 0.445,1.566c0.148,0.428 0.346,0.76 0.593,0.998c0.198,0.237 0.444,0.379 0.691,0.474c0.247,0.094 0.494,0.142 0.84,0.142c0.346,-0 0.742,-0.094 1.137,-0.237c0.394,-0.142 0.79,-0.332 1.185,-0.522c0.346,-0.237 0.692,-0.475 1.038,-0.712c0.346,-0.238 0.642,-0.428 0.939,-0.665c0.296,-0.238 0.642,-0.522 0.988,-0.854c0.297,-0.333 0.593,-0.665 0.938,-0.95l0.001,-0Z" style="fill:#3cc;fill-rule:nonzero;"/><path d="M265.389,19.811c-0.148,0.19 -0.296,0.427 -0.395,0.665c-0.148,0.236 -0.198,0.474 -0.247,0.758c-0.05,0.143 -0.05,0.333 -0.099,0.57c-0.049,0.238 -0.099,0.475 -0.148,0.808c-0.05,0.474 -0.099,0.854 -0.149,1.139c-0.048,0.332 -0.097,0.617 -0.147,0.902c0,0.048 0,0.143 -0.049,0.19l2.716,0c0.149,-0.807 0.346,-1.757 0.594,-2.896c0.049,-0.38 0.148,-0.713 0.247,-0.997c0.049,-0.333 0.148,-0.664 0.197,-0.997c-0.247,-0.522 -0.692,-0.76 -1.234,-0.76c-0.248,0 -0.495,0.048 -0.742,0.19c-0.198,0.095 -0.395,0.238 -0.544,0.428Z" style="fill:#3cc;fill-rule:nonzero;"/><path d="M249.726,19.811c-0.148,0.19 -0.296,0.427 -0.394,0.665c-0.149,0.236 -0.198,0.474 -0.248,0.758c-0.049,0.143 -0.049,0.333 -0.098,0.57c-0.05,0.238 -0.099,0.475 -0.149,0.808c-0.049,0.474 -0.099,0.854 -0.148,1.139c-0.049,0.332 -0.099,0.617 -0.148,0.902c-0,0.048 -0,0.143 -0.05,0.19l2.718,0c0.148,-0.807 0.346,-1.757 0.593,-2.896c0.05,-0.38 0.148,-0.713 0.246,-0.997c0.05,-0.333 0.149,-0.664 0.198,-0.997c-0.246,-0.522 -0.691,-0.76 -1.235,-0.76c-0.247,0 -0.494,0.048 -0.741,0.19c-0.198,0.095 -0.396,0.238 -0.544,0.428Z" style="fill:#3cc;fill-rule:nonzero;"/><path d="M233.915,26.599c-0.346,0.143 -0.741,0.285 -1.087,0.475c-0.346,0.19 -0.691,0.38 -0.988,0.618c-0.346,0.236 -0.642,0.521 -0.89,0.759c-0.593,0.665 -1.087,1.377 -1.531,2.088l2.817,0c0.147,-0.237 0.295,-0.427 0.444,-0.569c0.593,-0.712 1.186,-1.044 1.828,-1.092c0.149,0 0.247,0.048 0.345,0.143c0.099,0.047 0.198,0.142 0.297,0.285c0.049,0.142 0.148,0.285 0.198,0.427c0.049,0.143 0.049,0.332 0.049,0.474l0,0.332l2.52,0c0.05,-0.379 0.099,-0.758 0.05,-1.138c-0.05,-0.428 -0.149,-0.855 -0.297,-1.235c-0.198,-0.38 -0.445,-0.759 -0.79,-1.092c-0.099,-0.142 -0.247,-0.237 -0.395,-0.285c-0.198,-0.095 -0.396,-0.19 -0.544,-0.237c-0.198,-0.048 -0.396,-0.095 -0.544,-0.095c-0.148,-0.048 -0.247,-0.048 -0.346,-0.048c-0.394,0.048 -0.79,0.095 -1.136,0.19Z" style="fill:#3cc;fill-rule:nonzero;"/><path d="M211.582,30.539l2.965,0c-0.396,-0.237 -0.841,-0.332 -1.384,-0.332c-0.544,0 -1.087,0.095 -1.532,0.285c-0.049,-0 -0.049,-0 -0.049,0.047Z" style="fill:#3cc;fill-rule:nonzero;"/><path d="M214.547,30.539l-2.965,0c-0.445,0.143 -0.89,0.38 -1.285,0.713c-0.395,0.285 -0.79,0.665 -1.186,1.092c-0.395,0.427 -0.791,0.854 -1.186,1.329c-0.543,0.665 -0.988,1.281 -1.433,1.804c-0.197,0.237 -0.395,0.475 -0.593,0.712l2.817,0c0.296,-0.427 0.593,-0.76 0.84,-1.045c0.346,-0.426 0.592,-0.758 0.839,-0.996c0.248,-0.237 0.495,-0.427 0.742,-0.57c0.198,-0.142 0.395,-0.19 0.593,-0.237c0.198,-0.048 0.395,-0.095 0.593,-0.095c0.296,-0 0.543,0.095 0.691,0.285c0.149,0.19 0.297,0.475 0.445,0.807c0.148,0.332 0.247,0.711 0.297,1.234c0.049,0.19 0.099,0.38 0.148,0.617l2.718,0c-0.05,-0.332 -0.099,-0.665 -0.149,-0.997c-0.049,-0.712 -0.148,-1.424 -0.296,-2.041c-0.149,-0.618 -0.297,-1.092 -0.544,-1.519c-0.247,-0.428 -0.593,-0.808 -0.988,-1.045c-0.049,-0.048 -0.049,-0.048 -0.098,-0.048Z" style="fill:#3cc;fill-rule:nonzero;"/><path d="M203.923,29.021c-0.148,-0 -0.247,0.047 -0.395,0.095c-0.149,0.047 -0.248,0.142 -0.396,0.285c-0.148,0.142 -0.247,0.285 -0.395,0.522c-0.099,0.189 -0.197,0.379 -0.246,0.616l2.569,0l-0,-0.19c-0,-0.426 -0.049,-0.758 -0.198,-0.996c-0.148,-0.237 -0.296,-0.38 -0.494,-0.38c-0.148,0 -0.297,0 -0.445,0.048Z" style="fill:#3cc;fill-rule:nonzero;"/><path d="M205.06,30.539l-2.569,0c-0.149,0.285 -0.248,0.618 -0.346,0.95c-0.198,0.523 -0.346,1.092 -0.495,1.709c-0.099,0.428 -0.197,0.855 -0.247,1.282c-0.099,0.095 -0.198,0.19 -0.346,0.333c-0.395,0.426 -0.84,0.854 -1.284,1.376l3.952,0c0.05,-0.19 0.05,-0.38 0.099,-0.522c0.05,-0.38 0.148,-0.76 0.247,-1.092c0.05,-0.379 0.149,-0.712 0.198,-0.997c0.099,-0.38 0.198,-0.712 0.297,-0.95c0.098,-0.331 0.197,-0.569 0.247,-0.806c0.049,-0.238 0.148,-0.475 0.198,-0.713c0.048,-0.19 0.048,-0.38 0.048,-0.57l0.001,0Z" style="fill:#3cc;fill-rule:nonzero;"/><path d="M247.602,29.496c-0.05,0.332 -0.099,0.711 -0.149,1.043l2.668,0c0.05,-0.379 0.099,-0.758 0.149,-1.138c0.148,-0.808 0.296,-1.568 0.445,-2.279c0.098,-0.333 0.247,-0.95 0.395,-1.804c0.049,-0.142 0.049,-0.332 0.099,-0.475l-2.718,0c-0.049,0.238 -0.099,0.522 -0.148,0.807c-0.099,0.332 -0.198,0.807 -0.297,1.329c-0.148,0.807 -0.296,1.662 -0.444,2.517Z" style="fill:#3cc;fill-rule:nonzero;"/><path d="M237.917,30.539l-2.52,0c-0.049,0.238 -0.099,0.428 -0.198,0.665c-0.148,0.333 -0.296,0.665 -0.542,0.95c-0.247,0.332 -0.495,0.617 -0.791,0.902c-0.297,0.285 -0.593,0.57 -0.84,0.807c-0.445,0.38 -0.889,0.76 -1.433,1.091c-0.494,0.38 -1.038,0.808 -1.582,1.235l3.212,0c0.149,-0.142 0.346,-0.285 0.495,-0.427c0.79,-0.618 1.481,-1.234 2.025,-1.756c0.544,-0.523 0.989,-1.045 1.335,-1.567c0.345,-0.522 0.592,-1.045 0.74,-1.52c0.05,-0.142 0.05,-0.237 0.099,-0.38Z" style="fill:#3cc;fill-rule:nonzero;"/><path d="M232.236,30.539l-2.817,0c-0.544,0.855 -0.988,1.758 -1.285,2.659c-0.148,0.428 -0.247,0.855 -0.346,1.282c-0.148,0.143 -0.346,0.333 -0.493,0.474c-0.346,0.38 -0.643,0.713 -0.89,0.95c-0.099,0.095 -0.198,0.19 -0.297,0.285l3.854,0c0.049,-0.237 0.099,-0.522 0.148,-0.855c0.05,-0.332 0.148,-0.616 0.247,-0.901c0.05,-0.332 0.149,-0.665 0.247,-0.95c0.099,-0.332 0.198,-0.57 0.346,-0.807c0.396,-0.854 0.841,-1.567 1.286,-2.137Z" style="fill:#3cc;fill-rule:nonzero;"/><path d="M247.453,30.539c-0.148,0.523 -0.247,1.045 -0.296,1.568c-0.098,0.664 -0.197,1.329 -0.247,2.041l-0.692,0.665c-0.494,0.426 -0.988,0.901 -1.482,1.376l4.694,0c0,-0.617 0.05,-1.235 0.099,-1.851c0.098,-0.807 0.197,-1.662 0.345,-2.516c0.05,-0.428 0.149,-0.855 0.247,-1.283l-2.668,0Z" style="fill:#3cc;fill-rule:nonzero;"/><path d="M266.871,24.843l-2.716,0c-0.05,0.238 -0.099,0.522 -0.149,0.807c-0.098,0.332 -0.197,0.807 -0.296,1.329c-0.148,0.807 -0.297,1.662 -0.445,2.517c-0.049,0.332 -0.099,0.711 -0.148,1.043l2.668,0c0.049,-0.379 0.099,-0.758 0.148,-1.138c0.148,-0.808 0.297,-1.568 0.445,-2.279c0.099,-0.333 0.247,-0.95 0.395,-1.804c0.049,-0.142 0.049,-0.332 0.098,-0.475Z" style="fill:#3cc;fill-rule:nonzero;"/><path d="M265.785,30.539l-2.668,0c-0.149,0.523 -0.247,1.045 -0.297,1.568c-0.148,0.806 -0.198,1.614 -0.247,2.421c-0.099,0.047 -0.198,0.095 -0.247,0.142c-0.198,0.19 -0.396,0.379 -0.543,0.522c-0.198,0.237 -0.445,0.475 -0.692,0.76c-0.049,0.047 -0.099,0.142 -0.148,0.237l4.15,0c-0,-0.617 0.049,-1.235 0.099,-1.851c0.099,-0.807 0.197,-1.662 0.346,-2.516c0.049,-0.428 0.148,-0.855 0.247,-1.283Z" style="fill:#3cc;fill-rule:nonzero;"/><path d="M279.126,30.539l2.618,0l-0,-0.237c-0,-0.569 -0.147,-0.854 -0.493,-0.854c-0.544,0 -1.088,0.19 -1.632,0.617c-0.197,0.142 -0.346,0.284 -0.493,0.474Z" style="fill:#3cc;fill-rule:nonzero;"/><path d="M281.744,30.539l-2.618,0c-0.247,0.238 -0.445,0.57 -0.544,0.903c-0.049,0.237 -0.148,0.617 -0.197,1.044c-0.099,0.427 -0.198,0.902 -0.248,1.52c-0.049,0.19 -0.049,0.38 -0.049,0.617c-0.049,-0 -0.049,-0 -0.099,0.047c-0.198,0.19 -0.395,0.379 -0.544,0.522c-0.197,0.237 -0.444,0.475 -0.692,0.76c-0.048,0.047 -0.097,0.142 -0.147,0.237l4.397,0c0,-0.285 0,-0.57 0.05,-0.855c0.049,-0.711 0.198,-1.471 0.346,-2.326c0.049,-0.475 0.148,-0.949 0.198,-1.424c0.049,-0.38 0.098,-0.712 0.147,-1.045Z" style="fill:#3cc;fill-rule:nonzero;"/><path d="M295.481,33.198c-0.05,0 -0.05,0 -0.099,0.048c-0.05,0.047 -0.05,0.095 -0.099,0.142c-0.05,0.048 -0.05,0.095 -0.099,0.143c-0.049,0.047 -0.049,0.047 -0.049,0.095c-0.297,0.38 -0.643,0.76 -1.038,1.187c-0.395,0.426 -0.84,0.854 -1.285,1.376l2.174,0c0.247,-0.427 0.495,-0.76 0.692,-1.092c0.247,-0.427 0.346,-0.711 0.346,-0.949c0,-0.142 -0.049,-0.332 -0.148,-0.57c-0.099,-0.237 -0.247,-0.38 -0.395,-0.38Z" style="fill:#3cc;fill-rule:nonzero;"/><path d="M176.55,22.612c-0.099,0.332 -0.149,0.711 -0.198,1.044c-0.05,0.332 -0.148,0.712 -0.247,1.045l-0,0.142l2.668,0c0.049,-0.237 0.148,-0.475 0.198,-0.712c0.247,-0.713 0.395,-1.377 0.395,-1.899c0,-0.903 -0.445,-1.377 -1.285,-1.377c-0.543,-0 -0.988,0.285 -1.235,0.854c-0.148,0.285 -0.247,0.57 -0.296,0.903Z" style="fill:#3cc;fill-rule:nonzero;"/><path d="M140.332,28.356c-0.247,-0.048 -0.544,-0.048 -0.791,-0.048l-0.791,0c-0.493,0 -1.037,0.143 -1.679,0.38c-0.593,0.238 -1.235,0.57 -1.878,0.998c-0.445,0.237 -0.84,0.521 -1.186,0.853l8.895,0c-0.05,-0.047 -0.05,-0.047 -0.05,-0.095c-0.099,-0.237 -0.198,-0.474 -0.296,-0.711c-0.149,-0.237 -0.248,-0.427 -0.396,-0.617c-0.148,-0.19 -0.297,-0.333 -0.395,-0.38c-0.198,-0.143 -0.445,-0.238 -0.692,-0.285c-0.247,-0.048 -0.494,-0.095 -0.741,-0.095Z" style="fill:#3cc;fill-rule:nonzero;"/><path d="M105.053,30.539l3.014,0c-0.395,-0.332 -0.84,-0.521 -1.285,-0.521c-0.543,-0 -1.087,0.142 -1.63,0.426c-0.05,0.048 -0.05,0.048 -0.099,0.095Z" style="fill:#3cc;fill-rule:nonzero;"/><path d="M108.067,30.539l-3.014,0c-0.494,0.238 -0.939,0.618 -1.383,1.14c-0.247,0.238 -0.544,0.57 -0.791,0.949c-0.297,0.38 -0.593,0.808 -0.89,1.235c-0.296,0.428 -0.593,0.902 -0.839,1.329c-0.247,0.332 -0.445,0.665 -0.643,0.997l2.471,0c0.247,-0.38 0.494,-0.712 0.741,-0.997c0.494,-0.617 0.938,-1.139 1.334,-1.471c0.395,-0.38 0.692,-0.57 0.89,-0.57c0.345,-0 0.592,0.475 0.839,1.377c0.099,0.426 0.198,0.996 0.247,1.661l2.421,0c-0.049,-0.095 -0.049,-0.19 -0.049,-0.237c-0.05,-0.428 -0.05,-0.903 -0.099,-1.329c-0.05,-0.427 -0.05,-0.855 -0.099,-1.282c-0.049,-0.428 -0.148,-0.76 -0.198,-1.044c-0.148,-0.665 -0.394,-1.188 -0.79,-1.615c-0.049,-0.048 -0.098,-0.095 -0.148,-0.143Z" style="fill:#3cc;fill-rule:nonzero;"/><path d="M97.048,29.258c-0.148,0.143 -0.346,0.285 -0.494,0.428c-0.148,0.142 -0.296,0.332 -0.444,0.521c-0.099,0.095 -0.148,0.19 -0.198,0.332l2.866,0c-0.049,-0.095 -0.049,-0.19 -0.049,-0.237c-0.05,-0.237 -0.099,-0.474 -0.198,-0.616c-0.099,-0.19 -0.247,-0.333 -0.395,-0.428c-0.149,-0.095 -0.346,-0.142 -0.594,-0.142c-0.148,-0 -0.296,0.047 -0.494,0.142Z" style="fill:#3cc;fill-rule:nonzero;"/><path d="M95.912,30.539c-0.049,0.048 -0.049,0.048 -0.049,0.095c-0.05,0.238 -0.099,0.618 -0.149,1.045c-0.049,0.428 -0.098,0.902 -0.148,1.424c-0.049,0.523 -0.049,1.045 -0.099,1.567c-0.049,0.522 -0.148,1.044 -0.197,1.519l2.717,0c0.05,-0.427 0.149,-0.902 0.247,-1.424c0.099,-0.522 0.198,-0.997 0.297,-1.424c0.049,-0.475 0.148,-0.902 0.198,-1.329c0.049,-0.38 0.049,-0.713 0.049,-0.998l0,-0.475l-2.866,0Z" style="fill:#3cc;fill-rule:nonzero;"/><path d="M115.775,31.157c-0.445,0.427 -0.84,0.95 -1.285,1.566c-0.445,0.618 -0.889,1.235 -1.284,1.852c-0.346,0.569 -0.643,1.092 -0.89,1.614l2.322,0c0.05,-0.047 0.05,-0.047 0.05,-0.095c0.445,-0.617 0.84,-1.187 1.186,-1.661c0.345,-0.427 0.691,-0.807 0.938,-1.045c0.247,-0.237 0.495,-0.38 0.643,-0.38c0.099,0 0.198,0.095 0.247,0.238c0.049,0.19 0.148,0.427 0.198,0.712c0.049,0.238 0.099,0.57 0.148,0.949c0.049,0.38 0.148,0.76 0.198,1.14l-0,0.142l2.371,0c0,-0.142 0,-0.332 -0.049,-0.475c-0.049,-0.665 -0.099,-1.281 -0.148,-1.803c-0.05,-0.523 -0.05,-0.998 -0.099,-1.425c-0.05,-0.427 -0.099,-0.854 -0.148,-1.187c-0.05,-0.285 -0.149,-0.522 -0.297,-0.76l-3.41,0c-0.247,0.19 -0.444,0.38 -0.691,0.618Z" style="fill:#3cc;fill-rule:nonzero;"/><path d="M137.664,30.824c0.346,-0.142 0.74,-0.19 1.136,-0.19l0.544,0c0.197,0 0.346,0.095 0.494,0.285c0.148,0.143 0.198,0.38 0.198,0.665c0.049,0.285 0.049,0.523 0.049,0.713c-0,1.329 -0.247,2.61 -0.791,3.892l2.668,0c0.05,-0.57 0.099,-1.14 0.247,-1.661c0.149,-0.617 0.297,-1.33 0.495,-2.089c0.148,-0.617 0.247,-1.092 0.247,-1.472c-0,-0.143 -0,-0.285 -0.049,-0.428l-8.895,0c-0.247,0.143 -0.445,0.333 -0.691,0.523c-0.593,0.522 -1.087,1.092 -1.532,1.614c-0.346,0.38 -0.643,0.807 -0.988,1.282c-0.148,0.143 -0.247,0.238 -0.346,0.333c-0.346,0.332 -0.692,0.663 -1.038,0.996c-0.346,0.285 -0.643,0.57 -0.89,0.902l3.805,0c0.149,-0.38 0.346,-0.712 0.544,-1.045c0.297,-0.426 0.592,-0.853 0.889,-1.233c0.247,-0.38 0.544,-0.713 0.791,-0.95c0.346,-0.333 0.642,-0.617 0.988,-0.854c0.345,-0.285 0.691,-0.523 1.037,-0.76c0.346,-0.238 0.692,-0.38 1.088,-0.523Z" style="fill:#3cc;fill-rule:nonzero;"/><path d="M116.466,30.539l3.41,0c-0.049,-0.047 -0.049,-0.095 -0.099,-0.142c-0.049,-0.095 -0.148,-0.19 -0.296,-0.285c-0.149,-0.094 -0.297,-0.189 -0.445,-0.236c-0.149,-0.048 -0.346,-0.143 -0.543,-0.19c-0.148,-0.048 -0.346,-0.048 -0.544,-0.048c-0.247,0 -0.593,0.143 -0.939,0.427c-0.198,0.142 -0.395,0.284 -0.544,0.474Z" style="fill:#3cc;fill-rule:nonzero;"/><path d="M178.773,24.843l-2.668,0c-0.05,0.285 -0.149,0.569 -0.247,0.854c-0.099,0.332 -0.198,0.712 -0.297,1.187c-0.148,0.428 -0.246,0.854 -0.345,1.377c-0.148,0.475 -0.247,0.95 -0.346,1.377c-0.099,0.332 -0.148,0.617 -0.198,0.901l2.668,0l0,-0.047c0,-0.38 0.149,-1.091 0.396,-2.184c0.246,-0.949 0.592,-2.089 1.037,-3.465Z" style="fill:#3cc;fill-rule:nonzero;"/><path d="M157.033,29.543c-0.099,-0.095 -0.198,-0.19 -0.346,-0.237c-0.149,-0.048 -0.248,-0.095 -0.396,-0.095c-0.445,0.047 -0.74,0.19 -0.987,0.427c-0.198,0.19 -0.346,0.474 -0.396,0.901l2.569,0c-0.049,-0.142 -0.049,-0.237 -0.049,-0.379c0,-0.095 -0.049,-0.19 -0.099,-0.284c-0.099,-0.143 -0.198,-0.238 -0.296,-0.333Z" style="fill:#3cc;fill-rule:nonzero;"/><path d="M164.296,30.539l4.199,0c-0.148,-0.047 -0.247,-0.095 -0.346,-0.142c-0.345,-0.142 -0.74,-0.19 -1.185,-0.237c-0.395,-0.048 -0.741,-0.095 -1.038,-0.048c-0.444,0.048 -0.988,0.19 -1.63,0.427Z" style="fill:#3cc;fill-rule:nonzero;"/><path d="M168.495,30.539l-4.199,0c-0.247,0.048 -0.494,0.143 -0.742,0.285c-0.839,0.333 -1.729,0.903 -2.668,1.709c-0.938,0.808 -1.778,1.853 -2.569,3.134c-0.148,0.19 -0.246,0.38 -0.296,0.522l2.766,0c0.346,-0.427 0.692,-0.855 1.088,-1.235c1.432,-1.376 3.261,-2.136 5.435,-2.278l0.544,-0c-0,0.332 0.049,0.617 0.147,0.855c0.099,0.237 0.247,0.38 0.396,0.522c0.148,0.143 0.395,0.238 0.692,0.285c0.296,0.048 0.642,0.095 1.038,0.095c0.148,0 0.345,0 0.641,-0.047c0.247,-0.048 0.544,-0.048 0.841,-0.095c0.296,-0.048 0.593,-0.048 0.889,-0.095l0.592,-0c0.198,-0 0.346,0.047 0.495,0.142c0.148,0.095 0.198,0.237 0.198,0.38c-0,0.047 -0,0.142 -0.05,0.284c-0.049,0.19 -0.049,0.427 -0.099,0.665c-0.049,0.142 -0.049,0.332 -0.099,0.522l2.718,0c0.198,-0.807 0.395,-1.614 0.593,-2.421c0.247,-0.095 0.593,-0.19 1.037,-0.237c0.445,-0.048 0.89,-0.095 1.434,-0.143c0.494,-0.047 0.987,-0.142 1.531,-0.19c0.544,-0.047 1.088,-0.047 1.532,-0.095c0.444,-0.047 0.939,-0.142 1.433,-0.19c0.494,-0.047 0.988,-0.142 1.482,-0.237c-0.05,0.38 -0.148,0.807 -0.197,1.33c-0.099,0.901 -0.148,1.613 -0.148,2.183l3.013,0c0,-0.285 0,-0.57 0.049,-0.855c0.05,-0.711 0.198,-1.471 0.346,-2.326c0.05,-0.475 0.149,-0.949 0.198,-1.424c0,-0.047 0,-0.095 0.05,-0.142c0.049,-0.048 0.098,-0.095 0.148,-0.143c0.198,-0.19 0.297,-0.427 0.346,-0.76l-3.904,0c-0.395,0.048 -0.79,0.095 -1.136,0.143c-0.643,0.047 -1.236,0.142 -1.778,0.19c-0.495,0.047 -0.989,0.095 -1.434,0.142c-0.494,0.048 -0.938,0.048 -1.383,0.048c-0.445,0.047 -0.939,0.047 -1.483,0.047c-0.444,0 -0.642,-0.19 -0.642,-0.57l-2.668,0c-0.049,0.095 -0.049,0.19 -0.099,0.333c-0.049,0.19 -0.148,0.332 -0.197,0.475c-0.099,0.142 -0.198,0.19 -0.297,0.237c-0.099,0.048 -0.198,0.095 -0.296,0.095l-0.248,0c-0.148,0 -0.346,0 -0.692,0.048c-0.345,0.047 -0.74,0.047 -1.086,0.095c-0.346,0.047 -0.692,0.047 -1.038,0.095c-0.346,0.047 -0.592,0.047 -0.741,0.047l-0.445,0l0,-0.38c0,-0.285 -0.148,-0.522 -0.395,-0.712c-0.198,-0.143 -0.395,-0.238 -0.643,-0.333Z" style="fill:#3cc;fill-rule:nonzero;"/><path d="M154.908,30.539c-0.049,0.095 -0.049,0.19 -0.099,0.285c-0.148,0.428 -0.247,0.998 -0.395,1.709c-0.05,0.333 -0.099,0.713 -0.148,1.045c-0.149,0.143 -0.297,0.333 -0.445,0.523c-0.149,0.142 -0.248,0.237 -0.297,0.332c-0.592,0.616 -1.185,1.186 -1.828,1.756l4.743,0c0,-0.142 0,-0.285 0.05,-0.427c0.049,-0.428 0.198,-0.997 0.346,-1.614c0.099,-0.332 0.198,-0.665 0.247,-0.997c0.099,-0.333 0.148,-0.713 0.198,-1.044c0.049,-0.333 0.099,-0.713 0.148,-1.045c0.049,-0.19 0.049,-0.38 0.049,-0.523l-2.569,0Z" style="fill:#3cc;fill-rule:nonzero;"/><path d="M185.344,30.492c-0.048,-0 -0.098,-0 -0.147,0.047l3.903,0l-0,-0.19c-0,-0.142 -0,-0.284 -0.049,-0.379c-0.05,-0.047 -0.149,-0.094 -0.198,-0.094c-0.05,-0.048 -0.149,-0.048 -0.198,-0c-0.049,-0.285 -0.198,-0.428 -0.445,-0.428c-0.543,0 -1.086,0.19 -1.63,0.617c-0.099,0.047 -0.198,0.142 -0.297,0.237c-0.296,0.047 -0.593,0.142 -0.939,0.19Z" style="fill:#3cc;fill-rule:nonzero;"/><path d="M176.253,36.189l-2.718,0c-0.049,0.048 -0.049,0.143 -0.099,0.238c-0.049,0.285 -0.148,0.57 -0.197,0.854c-0.149,0.617 -0.296,1.235 -0.444,1.899c-0.148,0.617 -0.297,1.234 -0.445,1.852c-0.049,0.285 -0.099,0.57 -0.148,0.807l2.816,0l0,-0.19c0.05,-0.475 0.149,-0.902 0.198,-1.33c0.049,-0.427 0.148,-0.712 0.198,-0.949c0.147,-0.902 0.394,-1.804 0.691,-2.706c0.049,-0.142 0.099,-0.332 0.148,-0.475Z" style="fill:#3cc;fill-rule:nonzero;"/><path d="M187.963,36.189l-3.013,0c-0.05,0.143 -0.05,0.333 -0.05,0.475c0,1.329 0.149,2.611 0.444,3.893c0.099,0.427 0.247,0.855 0.396,1.282l3.36,0c-0.297,-0.285 -0.544,-0.712 -0.692,-1.33c-0.346,-1.139 -0.494,-2.278 -0.494,-3.37c-0,-0.285 -0,-0.617 0.049,-0.95Z" style="fill:#3cc;fill-rule:nonzero;"/><path d="M151.696,36.189c-0.148,0.095 -0.247,0.19 -0.395,0.285c-0.741,0.618 -1.482,1.187 -2.224,1.709c-0.741,0.475 -1.482,0.855 -2.223,1.14c-0.742,0.284 -1.482,0.426 -2.174,0.426c-0.445,0 -0.791,-0.095 -1.137,-0.284c-0.345,-0.237 -0.592,-0.474 -0.839,-0.807c-0.247,-0.332 -0.445,-0.665 -0.544,-1.045c-0.148,-0.426 -0.198,-0.806 -0.198,-1.186l0,-0.238l-2.668,0c-0.148,0.333 -0.346,0.713 -0.544,1.092c-0.641,0.997 -1.383,1.852 -2.223,2.658c-0.889,0.76 -1.877,1.378 -2.965,1.805c-0.098,0.048 -0.197,0.048 -0.246,0.095l3.854,0c0.148,-0.142 0.346,-0.285 0.494,-0.427c0.346,-0.333 0.74,-0.713 1.136,-1.045c0.346,-0.38 0.692,-0.713 1.038,-1.044c0.099,0.426 0.296,0.854 0.593,1.281c0.247,0.38 0.592,0.713 0.988,0.998c0.148,0.095 0.247,0.19 0.395,0.237l5.287,0c0.544,-0.237 1.088,-0.522 1.63,-0.855c0.742,-0.475 1.434,-0.997 2.125,-1.566c0.642,-0.617 1.334,-1.235 2.076,-1.852c0.198,-0.143 0.394,-0.333 0.592,-0.522c0.099,-0.142 0.198,-0.237 0.346,-0.332c-0.049,0.047 -0.049,0.142 -0.049,0.237c-0.05,0.759 -0.149,1.424 -0.198,1.994c-0.05,0.475 -0.099,0.901 -0.148,1.281c-0.05,0.333 -0.05,0.713 -0.099,1.045l-0,0.57l4.25,0c0.148,-0.427 0.346,-0.902 0.494,-1.33c0.741,-1.708 1.63,-3.133 2.667,-4.32l-2.766,0c-0.099,0.143 -0.198,0.238 -0.247,0.333c-0.148,0.237 -0.247,0.475 -0.346,0.664c-0.148,0.19 -0.247,0.38 -0.346,0.522c-0.099,0.19 -0.198,0.38 -0.297,0.618c-0.148,0.237 -0.247,0.475 -0.395,0.807c-0.148,0.285 -0.346,0.616 -0.544,1.044c0.099,-0.713 0.198,-1.281 0.247,-1.756c0.05,-0.475 0.149,-0.95 0.198,-1.377c0.05,-0.285 0.099,-0.57 0.148,-0.855l-4.743,0Z" style="fill:#3cc;fill-rule:nonzero;"/><path d="M146.459,42.076c0.197,-0.048 0.395,-0.142 0.642,-0.237l-5.287,0c0.247,0.142 0.494,0.284 0.791,0.379c0.445,0.143 0.839,0.238 1.284,0.238c0.939,-0 1.78,-0.143 2.57,-0.38Z" style="fill:#3cc;fill-rule:nonzero;"/><path d="M153.376,41.839l-0,0.474c-0.05,0.333 -0.05,0.76 -0,1.188c0.099,1.613 0.543,2.421 1.334,2.373c0.099,0 0.248,-0.047 0.396,-0.095c0.198,-0.047 0.395,-0.095 0.641,-0.142c0.198,-0.048 0.396,-0.143 0.594,-0.238c0.148,-0.047 0.247,-0.142 0.247,-0.237c0.099,-0.238 0.197,-0.523 0.247,-0.76c0.049,-0.237 0.099,-0.474 0.198,-0.806c0.148,-0.57 0.346,-1.093 0.543,-1.615c0,-0.047 0,-0.094 0.05,-0.142l-4.25,0Z" style="fill:#3cc;fill-rule:nonzero;"/><path d="M175.018,41.839l-2.816,0c-0.05,0.332 -0.149,0.617 -0.198,0.949c-0.049,0.57 -0.099,1.14 -0.099,1.661c0,0.38 0.05,0.76 0.148,1.093c0.099,0.38 0.248,0.712 0.396,0.997c0.198,0.284 0.445,0.522 0.691,0.664c0.247,0.19 0.544,0.285 0.89,0.285c0.197,0 0.395,-0.047 0.642,-0.095c0.247,-0.047 0.495,-0.142 0.692,-0.285c0.246,-0.095 0.444,-0.237 0.592,-0.38c0.149,-0.141 0.198,-0.284 0.198,-0.426c0,-0.238 -0.049,-0.428 -0.198,-0.57c-0.148,-0.095 -0.346,-0.238 -0.494,-0.38c-0.147,-0.143 -0.345,-0.285 -0.493,-0.523c-0.148,-0.237 -0.198,-0.569 -0.198,-1.044c0,-0.142 0,-0.427 0.05,-0.854c0.049,-0.333 0.148,-0.713 0.197,-1.092Z" style="fill:#3cc;fill-rule:nonzero;"/><path d="M193.102,41.364c-0.346,0.19 -0.691,0.333 -0.988,0.475l4.496,0c0.05,-0.047 0.099,-0.095 0.149,-0.142c0.692,-0.618 1.383,-1.283 2.025,-1.9c0.544,-0.617 1.088,-1.186 1.63,-1.756c0.198,-0.238 0.396,-0.428 0.594,-0.665c-0.099,0.855 -0.149,1.52 -0.149,1.947c0,1.091 0.149,1.899 0.396,2.516l2.767,0c0.198,-0.19 0.395,-0.38 0.593,-0.617c0.396,-0.428 0.79,-0.855 1.185,-1.33c0.396,-0.427 0.742,-0.854 1.038,-1.281c0.594,-0.808 1.087,-1.472 1.532,-2.042c0.099,-0.142 0.197,-0.237 0.346,-0.38l-2.817,0c-0.247,0.238 -0.445,0.523 -0.692,0.76c-0.74,0.902 -1.235,1.377 -1.581,1.424c-0.049,-0.237 -0.098,-0.427 -0.098,-0.617c-0,-0.285 0.049,-0.617 0.098,-0.997c0.05,-0.19 0.05,-0.38 0.099,-0.57l-3.952,0c-0.05,0 -0.05,0 -0.099,0.048c-0.494,0.475 -0.989,0.949 -1.532,1.424c-0.543,0.475 -1.087,0.95 -1.68,1.424c-0.544,0.428 -1.137,0.854 -1.68,1.234c-0.543,0.38 -1.136,0.713 -1.68,1.045Z" style="fill:#3cc;fill-rule:nonzero;"/><path d="M192.114,41.839c-0.741,0.284 -1.384,0.427 -1.976,0.427c-0.445,-0 -0.791,-0.143 -1.038,-0.427l-3.36,0c0.247,0.759 0.642,1.424 1.137,1.994c0.79,0.901 1.877,1.376 3.261,1.376c1.235,0 2.667,-0.57 4.298,-1.756c0.741,-0.522 1.482,-1.092 2.174,-1.614l-4.496,0Z" style="fill:#3cc;fill-rule:nonzero;"/><path d="M120.617,36.189l-2.371,0c0.049,0.333 0.099,0.713 0.148,1.092c0.049,0.38 0.099,0.76 0.148,1.14c0.148,0.807 0.345,1.518 0.543,2.041c0.198,0.522 0.445,0.95 0.742,1.235c0.049,0.047 0.098,0.095 0.148,0.142l4.15,0c0.198,-0.095 0.395,-0.19 0.593,-0.285c0.445,-0.285 0.939,-0.57 1.383,-0.902c0.445,-0.333 0.791,-0.618 1.137,-0.903c0.445,-0.331 0.84,-0.664 1.236,-1.043c-0.198,0.759 -0.297,1.518 -0.297,2.231c0,0.237 0.05,0.57 0.099,0.902l2.766,0c-0.049,-0.047 -0.049,-0.142 -0.098,-0.237c-0.099,-0.19 -0.148,-0.38 -0.148,-0.523c-0.049,-0.19 -0.049,-0.332 -0.049,-0.475c-0,-0.332 0.049,-0.76 0.148,-1.186c0.147,-0.427 0.296,-0.902 0.493,-1.377c0.198,-0.523 0.445,-0.997 0.692,-1.472c0.05,-0.142 0.149,-0.237 0.247,-0.38l-3.805,0c-0.049,0.048 -0.098,0.048 -0.147,0.095c-0.346,0.285 -0.692,0.57 -1.087,0.902c-0.347,0.332 -0.742,0.617 -1.187,0.95c-0.444,0.332 -0.839,0.617 -1.235,0.855c-0.444,0.237 -0.84,0.427 -1.186,0.568c-0.345,0.143 -0.642,0.238 -0.889,0.238c-0.642,-0 -1.137,-0.332 -1.483,-0.996c-0.295,-0.618 -0.542,-1.473 -0.691,-2.612Z" style="fill:#3cc;fill-rule:nonzero;"/><path d="M102.978,36.189l-2.471,0c-0.049,0.048 -0.049,0.095 -0.099,0.143c-0.296,0.475 -0.593,0.949 -0.889,1.424c-0.346,0.475 -0.643,0.902 -0.889,1.282c-0.297,0.38 -0.544,0.711 -0.791,0.996c-0.247,0.285 -0.395,0.523 -0.544,0.665c0,-0.237 0,-0.522 0.05,-0.855c0.049,-0.379 0.099,-0.853 0.197,-1.471c0.05,-0.237 0.099,-0.57 0.198,-0.95c0.05,-0.379 0.148,-0.806 0.247,-1.234l-2.717,0c-0.05,0.57 -0.149,1.092 -0.198,1.519c-0.05,0.428 -0.099,0.855 -0.148,1.188c-0.05,0.379 -0.099,0.758 -0.099,1.138c-0.05,0.38 -0.05,0.808 -0.05,1.235l0,0.57l4.595,0c0.149,-0.237 0.248,-0.475 0.396,-0.712c0.198,-0.333 0.395,-0.665 0.544,-0.903c0.593,-0.996 1.185,-1.946 1.778,-2.801c0.297,-0.426 0.593,-0.854 0.89,-1.234Z" style="fill:#3cc;fill-rule:nonzero;"/><path d="M114.638,36.189l-2.322,0c-0.049,0.048 -0.099,0.143 -0.148,0.19c-0.346,0.523 -0.643,1.044 -0.89,1.472c-0.543,0.902 -0.889,1.329 -1.136,1.329c-0.049,0 -0.049,-0.047 -0.099,-0.095c-0.049,-0.047 -0.148,-0.189 -0.197,-0.332c-0.05,-0.142 -0.149,-0.38 -0.198,-0.617c-0.05,-0.238 -0.099,-0.57 -0.148,-0.949c-0.05,-0.333 -0.05,-0.665 -0.05,-0.998l-2.421,0c0.049,0.618 0.099,1.377 0.099,2.184c0.049,1.566 0.198,2.754 0.445,3.466l3.409,0c0.642,-0.807 1.433,-2.042 2.372,-3.608c0.444,-0.76 0.839,-1.424 1.284,-2.042Z" style="fill:#3cc;fill-rule:nonzero;"/><path d="M99.37,41.839l-4.595,0l0,0.048c0,0.141 0,0.331 0.05,0.474c-0,0.142 0.049,0.285 0.099,0.427c0.049,0.143 0.098,0.285 0.148,0.523c0.247,0.854 0.84,1.281 1.729,1.281c0.445,-0 0.84,-0.238 1.186,-0.712c0.149,-0.19 0.346,-0.427 0.544,-0.759c0.198,-0.285 0.394,-0.618 0.642,-0.95c0.049,-0.095 0.148,-0.19 0.197,-0.332Z" style="fill:#3cc;fill-rule:nonzero;"/><path d="M110.982,41.839l-3.409,0c-0,0.048 -0,0.142 0.049,0.189c0.247,0.713 0.791,1.093 1.581,1.093c0.544,-0 1.137,-0.428 1.779,-1.282Z" style="fill:#3cc;fill-rule:nonzero;"/><path d="M120.716,42.313c0.346,0.143 0.691,0.19 1.087,0.19c0.445,0 0.889,-0.095 1.433,-0.285c0.297,-0.142 0.592,-0.237 0.889,-0.379l-4.15,0c0.247,0.237 0.494,0.379 0.741,0.474Z" style="fill:#3cc;fill-rule:nonzero;"/><path d="M128.276,41.839c0,0.095 0,0.189 0.05,0.332c0.098,0.427 0.246,0.855 0.493,1.282c0.247,0.427 0.494,0.76 0.84,1.044c0.346,0.285 0.791,0.427 1.236,0.427c0.296,0 0.642,-0.047 1.037,-0.142c0.395,-0.095 0.791,-0.19 1.137,-0.333c0.394,-0.141 0.79,-0.331 1.136,-0.521c0.346,-0.19 0.642,-0.332 0.89,-0.475c0.444,-0.285 0.888,-0.617 1.284,-0.95c0.247,-0.237 0.543,-0.427 0.791,-0.664l-3.854,0c-0.692,0.237 -1.285,0.379 -1.73,0.379c-0.148,0 -0.297,-0.047 -0.395,-0.19c-0.05,-0.047 -0.099,-0.141 -0.149,-0.189l-2.766,0Z" style="fill:#3cc;fill-rule:nonzero;"/><path d="M281.003,36.189l-4.397,0c-0.247,0.238 -0.494,0.523 -0.791,0.855c-0.445,0.522 -0.988,1.044 -1.532,1.567c-0.543,0.569 -1.136,1.091 -1.729,1.518c-0.643,0.428 -1.284,0.808 -1.927,1.14c-0.692,0.285 -1.384,0.428 -2.075,0.428c-0.643,-0 -1.137,-0.143 -1.582,-0.38c-0.444,-0.238 -0.839,-0.618 -1.086,-1.045c-0.297,-0.428 -0.495,-0.949 -0.643,-1.566c-0.099,-0.618 -0.148,-1.33 -0.148,-2.089l-0,-0.428l-4.15,0c-0.247,0.238 -0.495,0.523 -0.791,0.855c-0.445,0.522 -0.988,1.044 -1.532,1.567c-0.543,0.569 -1.136,1.091 -1.73,1.518c-0.641,0.428 -1.284,0.808 -1.926,1.14c-0.691,0.285 -1.383,0.428 -2.075,0.428c-0.643,-0 -1.136,-0.143 -1.581,-0.38c-0.445,-0.238 -0.841,-0.618 -1.088,-1.045c-0.296,-0.428 -0.494,-0.949 -0.642,-1.566c-0.099,-0.618 -0.149,-1.33 -0.149,-2.089l0,-0.428l-4.693,0c-0.297,0.238 -0.593,0.523 -0.889,0.76c-0.791,0.664 -1.681,1.329 -2.668,2.042c-0.544,0.332 -1.088,0.711 -1.681,1.043c-0.592,0.333 -1.235,0.665 -1.877,0.95c-0.642,0.238 -1.285,0.475 -1.977,0.665c-0.346,0.095 -0.741,0.143 -1.087,0.19l5.88,0c0.247,-0.142 0.544,-0.332 0.791,-0.522c0.889,-0.665 1.778,-1.378 2.619,-2.089c0.839,-0.76 1.581,-1.567 2.322,-2.374c0.198,-0.237 0.395,-0.427 0.593,-0.617c-0.049,0.332 -0.049,0.712 -0.049,1.044c-0,1.187 0.148,2.231 0.444,3.086c0.197,0.522 0.445,1.045 0.741,1.472l10.08,0c0.395,-0.332 0.791,-0.665 1.137,-0.997c0.246,-0.285 0.543,-0.57 0.839,-0.903c0.297,-0.332 0.593,-0.616 0.89,-0.948c0.247,-0.333 0.494,-0.618 0.741,-0.903c0.246,-0.285 0.395,-0.522 0.543,-0.76c0.099,-0.142 0.198,-0.284 0.247,-0.426l0,0.379c0,1.187 0.148,2.231 0.445,3.086c0.198,0.522 0.445,1.045 0.742,1.472l10.079,-0.001c0.396,-0.331 0.79,-0.664 1.136,-0.996c0.247,-0.285 0.544,-0.57 0.841,-0.903c0.296,-0.332 0.593,-0.616 0.889,-0.948c0.246,-0.333 0.494,-0.618 0.741,-0.903c0.247,-0.285 0.395,-0.522 0.543,-0.76c0.05,-0.095 0.099,-0.19 0.149,-0.237c0.049,1.187 0.197,2.327 0.445,3.466c0.099,0.427 0.247,0.855 0.395,1.281l3.359,0c-0.296,-0.284 -0.543,-0.711 -0.691,-1.329c-0.346,-1.139 -0.494,-2.278 -0.494,-3.371c0,-0.284 0,-0.616 0.049,-0.949Z" style="fill:#3cc;fill-rule:nonzero;"/><path d="M294.986,36.189l-2.174,0c-0.049,0 -0.049,0 -0.099,0.048c-0.494,0.475 -0.988,0.95 -1.531,1.424c-0.544,0.475 -1.087,0.95 -1.681,1.424c-0.542,0.428 -1.135,0.854 -1.679,1.234c-0.544,0.38 -1.137,0.713 -1.68,1.045c-0.346,0.19 -0.692,0.333 -0.988,0.475l4.496,0c0.049,-0.047 0.099,-0.095 0.148,-0.142c0.692,-0.618 1.384,-1.283 2.026,-1.9c0.543,-0.617 1.087,-1.186 1.631,-1.756c0.494,-0.57 0.938,-1.092 1.334,-1.614c0.049,-0.095 0.148,-0.19 0.197,-0.238Z" style="fill:#3cc;fill-rule:nonzero;"/><path d="M257.681,42.076c0.099,-0.048 0.198,-0.142 0.297,-0.237l-10.08,0c0.148,0.237 0.297,0.474 0.494,0.664c0.495,0.618 1.088,1.045 1.779,1.282c0.692,0.285 1.433,0.428 2.223,0.428c0.593,-0 1.187,-0.095 1.829,-0.285c0.592,-0.19 1.186,-0.427 1.779,-0.76c0.593,-0.332 1.136,-0.665 1.679,-1.092Z" style="fill:#3cc;fill-rule:nonzero;"/><path d="M273.641,41.839l-10.079,0c0.148,0.237 0.296,0.474 0.494,0.664c0.493,0.618 1.086,1.045 1.778,1.282c0.692,0.285 1.433,0.428 2.224,0.428c0.593,-0 1.186,-0.095 1.828,-0.285c0.593,-0.19 1.186,-0.427 1.779,-0.76c0.592,-0.332 1.136,-0.665 1.68,-1.092c0.099,-0.048 0.197,-0.142 0.296,-0.237Z" style="fill:#3cc;fill-rule:nonzero;"/><path d="M282.139,41.839l-3.359,0c0.247,0.759 0.642,1.424 1.136,1.994c0.791,0.901 1.877,1.376 3.261,1.376c1.235,0 2.669,-0.57 4.299,-1.756c0.741,-0.522 1.483,-1.092 2.174,-1.614l-4.496,0c-0.742,0.284 -1.383,0.427 -1.977,0.427c-0.444,-0 -0.79,-0.143 -1.038,-0.427Z" style="fill:#3cc;fill-rule:nonzero;"/><path d="M233.223,36.189l-7.115,0c-0.543,0.475 -1.087,0.95 -1.63,1.424c-0.643,0.523 -1.285,0.998 -1.878,1.378c-0.592,0.427 -1.186,0.711 -1.729,0.948c-0.544,0.238 -1.037,0.333 -1.532,0.333c-0.642,-0 -1.137,-0.143 -1.483,-0.475c-0.346,-0.284 -0.592,-0.664 -0.789,-1.139c-0.198,-0.522 -0.297,-1.045 -0.346,-1.661c-0.05,-0.285 -0.05,-0.57 -0.099,-0.808l-2.718,0c0.049,0.333 0.099,0.665 0.148,1.044c0.099,0.523 0.198,0.998 0.346,1.52c0.099,0.522 0.247,0.996 0.396,1.424c0.148,0.427 0.345,0.855 0.592,1.235c0.099,0.142 0.198,0.285 0.296,0.427l6.523,0c0.345,-0.237 0.741,-0.475 1.136,-0.712c0.544,-0.333 1.038,-0.713 1.581,-1.14c0.544,-0.428 1.087,-0.902 1.582,-1.376c0.247,-0.238 0.543,-0.523 0.791,-0.808l-0,0.428c-0,1.471 0.246,2.658 0.79,3.608l4.842,0c-0.84,-0.095 -1.482,-0.38 -2.026,-0.807c-0.643,-0.523 -0.989,-1.33 -0.989,-2.421c0.841,-0.523 1.582,-1.045 2.175,-1.519c0.395,-0.333 0.79,-0.618 1.136,-0.903Z" style="fill:#3cc;fill-rule:nonzero;"/><path d="M204.022,41.839l-2.767,0c0.247,0.617 0.593,0.997 1.137,1.092c0.295,-0.048 0.641,-0.238 1.037,-0.57c0.197,-0.143 0.395,-0.333 0.593,-0.522Z" style="fill:#3cc;fill-rule:nonzero;"/><path d="M215.682,41.839c0.149,0.189 0.346,0.332 0.495,0.474c0.593,0.475 1.383,0.713 2.322,0.713c0.494,-0 0.939,-0.048 1.335,-0.19c0.444,-0.095 0.839,-0.238 1.234,-0.38c0.346,-0.143 0.742,-0.38 1.137,-0.617l-6.523,0Z" style="fill:#3cc;fill-rule:nonzero;"/><path d="M234.558,41.839c-0.297,0.048 -0.593,0.048 -0.89,0.048c-0.247,-0 -0.494,-0 -0.741,-0.048l-4.842,0c0.197,0.427 0.444,0.759 0.741,1.044c1.037,1.045 2.421,1.566 4.249,1.566c0.84,0 1.729,-0.141 2.668,-0.379c0.939,-0.237 1.828,-0.617 2.718,-1.092c0.642,-0.332 1.334,-0.712 1.976,-1.139l-5.879,0Z" style="fill:#3cc;fill-rule:nonzero;"/></g></g></svg>